<?xml version="1.0" encoding="UTF-8"?>
<svg id="Layer_2" data-name="Layer 2" xmlns="http://www.w3.org/2000/svg" viewBox="0 0 660 628.74">
  <defs>
    <style>
      .cls-1 {
        fill: #f3cc30;
      }

      .cls-2 {
        fill: #f7db5e;
      }

      .cls-3 {
        fill: #edbd31;
      }
    </style>
  </defs>
  <g id="Object">
    <g>
      <path class="cls-1" d="m339.5,5.9l93.77,190c1.54,3.13,4.52,5.29,7.97,5.79l209.68,30.47c8.69,1.26,12.16,11.94,5.87,18.07l-151.72,147.89c-2.5,2.43-3.64,5.94-3.05,9.37l35.82,208.83c1.48,8.65-7.6,15.25-15.37,11.16l-187.54-98.6c-3.09-1.62-6.77-1.62-9.86,0l-187.54,98.6c-7.77,4.08-16.85-2.51-15.37-11.16l35.82-208.83c.59-3.44-.55-6.94-3.05-9.37L3.21,250.23c-6.29-6.13-2.82-16.8,5.87-18.07l209.68-30.47c3.45-.5,6.43-2.67,7.97-5.79L320.5,5.9c3.88-7.87,15.11-7.87,18.99,0Z"/>
      <path class="cls-2" d="m330,49.79l-83.56,161.86c-4.38,8.49-12.8,14.16-22.31,15.02l-181.43,16.56,191.69,8.96c12.17.57,23.32-6.81,27.54-18.24l68.08-184.16Z"/>
      <path class="cls-3" d="m126.28,592.3l-4.12,24.03c-1.48,8.65,7.6,15.25,15.37,11.16l187.54-98.6c3.09-1.62,6.77-1.62,9.86,0l187.54,98.6c7.77,4.09,16.85-2.51,15.37-11.16l-35.82-208.83c-.59-3.44.55-6.94,3.05-9.37l151.72-147.89c6.29-6.13,2.82-16.8-5.87-18.07l-70.23-10.21c-113.59,203.85-287.53,311.18-454.41,370.34Z"/>
    </g>
  </g>
</svg>